<svg xmlns="http://www.w3.org/2000/svg" width="80" height="100" viewBox="0 0 80 100">
  <line x1="40" y1="4" x2="40" y2="16" stroke="#575E75" stroke-width="3"/>
  <circle cx="40" cy="5" r="4" fill="#FFBF00"/>
  <rect x="14" y="16" width="52" height="36" rx="10" fill="#4C97FF" stroke="#3373CC" stroke-width="3"/>
  <path d="M24 34 Q30 28 36 34" fill="none" stroke="#fff" stroke-width="3" stroke-linecap="round"/>
  <path d="M44 34 Q50 28 56 34" fill="none" stroke="#fff" stroke-width="3" stroke-linecap="round"/>
  <ellipse cx="40" cy="45" rx="7" ry="4" fill="#fff"/>
  <rect x="20" y="54" width="40" height="30" rx="6" fill="#4C97FF" stroke="#3373CC" stroke-width="3"/>
  <rect x="31" y="61" width="18" height="12" rx="3" fill="#FF6680"/>
  <rect x="6" y="40" width="10" height="22" rx="5" fill="#3373CC" transform="rotate(-30 11 58)"/>
  <rect x="64" y="40" width="10" height="22" rx="5" fill="#3373CC" transform="rotate(30 69 58)"/>
  <rect x="20" y="86" width="12" height="12" rx="4" fill="#575E75"/>
  <rect x="48" y="86" width="12" height="12" rx="4" fill="#575E75"/>
</svg>
